<?xml version="1.0" standalone="no"?>
<!DOCTYPE svg PUBLIC "-//W3C//DTD SVG 20010904//EN"
 "http://www.w3.org/TR/2001/REC-SVG-20010904/DTD/svg10.dtd">
<svg version="1.0" xmlns="http://www.w3.org/2000/svg"
 width="592.000000pt" height="592.000000pt" viewBox="0 0 592.000000 592.000000"
 preserveAspectRatio="xMidYMid meet">
<metadata>
Created by potrace 1.11, written by Peter Selinger 2001-2013
</metadata>
<g transform="translate(0.000000,592.000000) scale(0.100000,-0.100000)"
fill="#000000" stroke="none">
<path d="M2555 4001 c-11 -5 -23 -7 -26 -5 -4 2 -29 0 -55 -5 -27 -5 -69 -12
-94 -16 -61 -8 -100 -14 -130 -20 -14 -2 -45 -7 -70 -11 -25 -3 -46 -7 -48 -9
-2 -1 -5 -139 -7 -306 -15 -1016 -14 -987 -30 -1199 -2 -36 -7 -121 -11 -190
-3 -69 -7 -150 -9 -180 -2 -30 -1 -58 1 -61 2 -3 23 -3 46 1 24 3 58 3 76 -1
18 -4 34 -3 37 1 2 4 22 4 42 1 21 -4 63 -5 95 -3 l56 4 -5 171 c-9 278 -8
825 1 1067 5 124 9 230 9 237 1 20 17 3 17 -18 0 -10 4 -27 10 -37 9 -18 60
-165 65 -192 2 -8 4 -16 5 -17 2 -2 3 -6 5 -10 1 -5 4 -15 8 -23 3 -8 52 -154
108 -325 56 -170 107 -313 112 -317 6 -4 23 -5 37 -2 30 5 159 12 248 13 46 1
64 5 67 16 3 8 8 23 12 33 3 9 7 19 8 22 1 3 7 17 13 33 6 15 20 53 31 85 10
31 33 95 51 142 17 47 41 114 54 150 13 36 53 147 90 246 36 100 66 186 66
192 0 15 17 24 17 9 0 -7 3 -84 7 -172 17 -426 21 -775 13 -1128 -3 -135 -1
-170 10 -176 17 -9 20 -155 9 -366 -24 -447 -26 -515 -13 -516 7 0 26 -2 42
-4 217 -20 577 -27 663 -13 418 71 671 382 588 723 -19 78 -45 129 -95 187
-33 37 -141 120 -161 124 -15 2 -90 40 -90 45 0 4 13 12 30 19 55 23 147 121
180 194 77 165 70 376 -15 491 -44 58 -130 135 -152 135 -5 0 -14 5 -21 12
-14 14 -67 33 -152 54 -56 14 -224 23 -465 24 l-30 0 -2 263 c-3 272 -6 607
-7 608 -1 0 -84 2 -186 5 -102 3 -190 7 -197 9 -7 2 -26 -34 -49 -93 -20 -53
-49 -126 -64 -162 -15 -36 -28 -69 -30 -75 -1 -5 -5 -17 -8 -25 -7 -20 -137
-360 -147 -385 -4 -11 -9 -24 -10 -30 -2 -5 -11 -28 -20 -50 -10 -22 -19 -44
-20 -50 -2 -5 -18 -50 -38 -100 -19 -49 -37 -98 -41 -108 -3 -10 -13 -17 -22
-15 -11 2 -29 41 -56 123 -21 66 -98 300 -169 520 -72 219 -133 404 -134 410
-16 58 -17 59 -50 46z m1582 -1201 c67 -22 111 -49 139 -85 26 -35 54 -133 47
-171 -1 -10 -4 -35 -7 -55 -12 -113 -106 -212 -211 -224 -16 -2 -30 -5 -30 -6
0 -4 -225 -4 -226 1 0 3 -2 14 -5 25 -7 38 -7 92 1 105 5 7 4 11 -1 7 -5 -3
-8 20 -6 51 3 56 9 249 11 328 l1 41 124 -2 c68 -2 142 -8 163 -15z m43 -834
c58 -9 146 -49 171 -78 46 -54 62 -101 65 -188 4 -133 -28 -203 -123 -269 -43
-29 -151 -49 -243 -44 -229 12 -209 9 -208 31 0 9 -3 76 -6 147 -4 72 -8 192
-10 267 -3 121 -2 137 13 140 27 6 293 1 341 -6z"/>
</g>
</svg>
