<svg width="67" height="74" viewBox="0 0 67 74" fill="none" xmlns="http://www.w3.org/2000/svg">
<path d="M33.3727 37.768H33.7327L38.9887 24.088L43.9567 24.232L44.1007 39.712L44.7847 49H39.9247L40.1047 39.64L39.7087 30.172L35.3887 42.088L30.9607 42.304L26.9287 30.172L26.6047 39.64L26.8567 49H22.3927L22.8967 40.252L23.1127 24.808L28.8367 23.908L33.3727 37.768Z" fill="white"/>
<path d="M47.692 35.16C49.996 35.16 51.82 35.688 53.164 36.744C54.508 37.776 55.18 39.168 55.18 40.92C55.18 43.728 54.028 45.684 51.724 46.788C54.844 47.868 56.404 49.86 56.404 52.764C56.404 54.948 55.468 56.772 53.596 58.236C51.724 59.676 49.372 60.396 46.54 60.396C45.052 60.396 42.832 60.264 39.88 60L40.312 51.252L39.88 35.16H47.692ZM47.224 49.308H44.308L44.272 50.64L44.524 56.508C45.916 56.628 46.984 56.688 47.728 56.688C49 56.688 49.984 56.376 50.68 55.752C51.4 55.104 51.76 54.168 51.76 52.944C51.76 51.72 51.4 50.808 50.68 50.208C49.96 49.608 48.808 49.308 47.224 49.308ZM46.396 38.796H44.632L44.416 45.816H46.756C47.98 45.816 48.916 45.492 49.564 44.844C50.212 44.172 50.536 43.224 50.536 42C50.536 39.864 49.156 38.796 46.396 38.796Z" fill="white"/>
</svg>
